<svg width="165" height="59" viewBox="0 0 165 59" fill="none" xmlns="http://www.w3.org/2000/svg">
<path d="M69.0675 32.1227C69.0675 31.8723 69.0281 31.6476 68.9493 31.4486C68.8771 31.2431 68.7391 31.0569 68.5356 30.89C68.332 30.7167 68.0463 30.5465 67.6786 30.3796C67.3108 30.2127 66.8347 30.0394 66.2503 29.8596C65.6001 29.6542 64.9829 29.423 64.3984 29.1662C63.8205 28.9094 63.3083 28.6109 62.8617 28.2707C62.4217 27.924 62.0737 27.5227 61.8176 27.0669C61.568 26.6111 61.4433 26.0814 61.4433 25.478C61.4433 24.8937 61.5746 24.3641 61.8373 23.889C62.1 23.4075 62.4677 22.9966 62.9405 22.6564C63.4134 22.3097 63.9715 22.0433 64.6151 21.8571C65.2652 21.6709 65.9777 21.5778 66.7526 21.5778C67.8099 21.5778 68.7326 21.764 69.5206 22.1363C70.3086 22.5087 70.9194 23.0191 71.3528 23.6675C71.7928 24.3159 72.0128 25.0574 72.0128 25.892H69.0773C69.0773 25.4812 68.9887 25.1216 68.8114 24.8135C68.6406 24.4989 68.378 24.2517 68.0233 24.072C67.6753 23.8922 67.2353 23.8023 66.7034 23.8023C66.1912 23.8023 65.7643 23.8794 65.4228 24.0335C65.0814 24.1811 64.8252 24.3833 64.6545 24.6401C64.4838 24.8905 64.3984 25.173 64.3984 25.4876C64.3984 25.7251 64.4575 25.9402 64.5757 26.1328C64.7005 26.3254 64.8843 26.5052 65.1273 26.6721C65.3703 26.839 65.6691 26.9963 66.0237 27.1439C66.3783 27.2916 66.7888 27.4361 67.255 27.5773C68.0365 27.8084 68.7227 28.0684 69.3138 28.3573C69.9113 28.6462 70.4104 28.9704 70.811 29.33C71.2116 29.6895 71.5137 30.0971 71.7173 30.553C71.9208 31.0088 72.0226 31.5256 72.0226 32.1034C72.0226 32.7133 71.9011 33.259 71.6582 33.7405C71.4152 34.222 71.0638 34.6297 70.6042 34.9635C70.1445 35.2973 69.5961 35.5509 68.9591 35.7243C68.3221 35.8976 67.6096 35.9843 66.8216 35.9843C66.1124 35.9843 65.413 35.8944 64.7235 35.7146C64.0339 35.5285 63.4068 35.2492 62.842 34.8768C62.2838 34.5045 61.8373 34.0294 61.5024 33.4516C61.1675 32.8738 61 32.1901 61 31.4004H63.965C63.965 31.837 64.0339 32.2061 64.1718 32.5079C64.3097 32.8096 64.5035 33.0536 64.753 33.2397C65.0091 33.4259 65.3112 33.5607 65.6592 33.6442C66.0139 33.7277 66.4013 33.7694 66.8216 33.7694C67.3338 33.7694 67.7541 33.6988 68.0825 33.5575C68.4174 33.4163 68.6636 33.2205 68.8212 32.9701C68.9854 32.7197 69.0675 32.4372 69.0675 32.1227Z" fill="#8C8A97"/>
<path d="M77.0168 34.6168L79.8439 25.372H82.8876L78.6027 37.3614C78.5108 37.6246 78.386 37.9071 78.2284 38.2088C78.0773 38.5106 77.8705 38.7962 77.6078 39.0659C77.3517 39.3419 77.0266 39.5667 76.6326 39.74C76.2452 39.9133 75.7691 40 75.2043 40C74.9351 40 74.7151 39.9839 74.5443 39.9519C74.3736 39.9198 74.17 39.8748 73.9336 39.817V37.7851C74.0058 37.7851 74.0814 37.7851 74.1602 37.7851C74.239 37.7915 74.3145 37.7947 74.3867 37.7947C74.761 37.7947 75.0664 37.753 75.3028 37.6695C75.5392 37.5861 75.7297 37.4577 75.8741 37.2843C76.0186 37.1174 76.1335 36.8991 76.2189 36.6295L77.0168 34.6168ZM75.8347 25.372L78.1496 32.9219L78.5534 35.8591L76.6228 36.0613L72.791 25.372H75.8347Z" fill="#8C8A97"/>
<path d="M86.7982 27.5966V35.7917H83.9613V25.372H86.6209L86.7982 27.5966ZM86.3845 30.2159H85.6162C85.6162 29.4455 85.718 28.7522 85.9216 28.1358C86.1251 27.5131 86.4108 26.9834 86.7785 26.5469C87.1463 26.1039 87.583 25.7669 88.0887 25.5357C88.6009 25.2982 89.1722 25.1794 89.8026 25.1794C90.3017 25.1794 90.7581 25.25 91.1718 25.3913C91.5856 25.5325 91.9402 25.7572 92.2357 26.0654C92.5378 26.3735 92.7676 26.7812 92.9252 27.2884C93.0894 27.7956 93.1715 28.4151 93.1715 29.147V35.7917H90.3148V29.1374C90.3148 28.6751 90.2492 28.3156 90.1178 28.0588C89.9865 27.802 89.7928 27.6222 89.5367 27.5195C89.2871 27.4104 88.9785 27.3558 88.6107 27.3558C88.2298 27.3558 87.8982 27.4296 87.6158 27.5773C87.34 27.725 87.1102 27.9304 86.9263 28.1936C86.749 28.4504 86.6144 28.7522 86.5224 29.0988C86.4305 29.4455 86.3845 29.8179 86.3845 30.2159Z" fill="#8C8A97"/>
<path d="M99.7318 33.8175C100.08 33.8175 100.389 33.7533 100.658 33.6249C100.927 33.4901 101.137 33.3039 101.288 33.0664C101.446 32.8224 101.528 32.5367 101.534 32.2093H104.204C104.197 32.9412 103.997 33.5928 103.603 34.1642C103.209 34.7292 102.68 35.1754 102.017 35.5028C101.354 35.8238 100.612 35.9843 99.791 35.9843C98.9635 35.9843 98.2412 35.8495 97.6239 35.5798C97.0131 35.3102 96.5042 34.9378 96.097 34.4627C95.6899 33.9812 95.3845 33.4227 95.181 32.7871C94.9774 32.1451 94.8756 31.4582 94.8756 30.7263V30.447C94.8756 29.7087 94.9774 29.0218 95.181 28.3862C95.3845 27.7442 95.6899 27.1857 96.097 26.7106C96.5042 26.2291 97.0131 25.8535 97.6239 25.5839C98.2346 25.3142 98.9504 25.1794 99.7713 25.1794C100.645 25.1794 101.41 25.3431 102.066 25.6706C102.73 25.998 103.248 26.4666 103.623 27.0765C104.004 27.68 104.197 28.3958 104.204 29.224H101.534C101.528 28.8773 101.452 28.5628 101.308 28.2803C101.17 27.9978 100.966 27.7731 100.697 27.6062C100.435 27.4328 100.109 27.3462 99.722 27.3462C99.3083 27.3462 98.9701 27.4328 98.7074 27.6062C98.4447 27.7731 98.2412 28.0042 98.0967 28.2995C97.9522 28.5884 97.8504 28.9191 97.7913 29.2914C97.7388 29.6574 97.7125 30.0426 97.7125 30.447V30.7263C97.7125 31.1308 97.7388 31.5192 97.7913 31.8915C97.8439 32.2639 97.9424 32.5945 98.0868 32.8834C98.2379 33.1723 98.4447 33.4002 98.7074 33.5672C98.9701 33.7341 99.3116 33.8175 99.7318 33.8175Z" fill="#8C8A97"/>
<path d="M108.617 21V35.7917H105.78V21H108.617ZM108.213 30.2159H107.435C107.441 29.4905 107.54 28.8228 107.73 28.2129C107.921 27.5966 108.193 27.0637 108.548 26.6143C108.903 26.1585 109.326 25.8054 109.819 25.555C110.318 25.3046 110.869 25.1794 111.474 25.1794C111.999 25.1794 112.475 25.2533 112.902 25.4009C113.335 25.5422 113.706 25.7733 114.015 26.0943C114.33 26.4089 114.573 26.8229 114.744 27.3365C114.915 27.8501 115 28.4729 115 29.2048V35.7917H112.143V29.1855C112.143 28.7233 112.074 28.3605 111.937 28.0973C111.805 27.8277 111.611 27.6383 111.355 27.5291C111.106 27.4136 110.797 27.3558 110.429 27.3558C110.022 27.3558 109.674 27.4296 109.385 27.5773C109.103 27.725 108.876 27.9304 108.706 28.1936C108.535 28.4504 108.41 28.7522 108.331 29.0988C108.252 29.4455 108.213 29.8179 108.213 30.2159Z" fill="#8C8A97"/>
<path d="M28.6732 31.0654H31.5935C31.5349 32.0268 31.2712 32.8803 30.8024 33.6259C30.3401 34.3715 29.6922 34.9536 28.8588 35.3721C28.0318 35.7907 27.0356 36 25.87 36C24.9584 36 24.1412 35.843 23.4185 35.5291C22.6957 35.2086 22.0771 34.7508 21.5627 34.1557C21.0548 33.5605 20.6674 32.8411 20.4005 31.9974C20.1335 31.1537 20 30.2086 20 29.1622V28.1714C20 27.1249 20.1367 26.1799 20.4102 25.3362C20.6902 24.4859 21.0874 23.7632 21.6018 23.1681C22.1227 22.5729 22.7446 22.1151 23.4673 21.7946C24.1901 21.4742 24.9975 21.3139 25.8896 21.3139C27.0746 21.3139 28.0741 21.5298 28.8881 21.9614C29.7085 22.3931 30.3434 22.9882 30.7926 23.7469C31.2484 24.5056 31.5219 25.3689 31.6131 26.3368H28.6829C28.6504 25.7613 28.5364 25.274 28.3411 24.8751C28.1458 24.4696 27.8495 24.1655 27.4523 23.9627C27.0616 23.7534 26.5407 23.6488 25.8896 23.6488C25.4012 23.6488 24.9747 23.7404 24.6101 23.9235C24.2454 24.1066 23.9394 24.3846 23.692 24.7574C23.4445 25.1302 23.259 25.601 23.1352 26.17C23.018 26.7325 22.9594 27.3931 22.9594 28.1517V29.1622C22.9594 29.9012 23.0148 30.552 23.1255 31.1145C23.2362 31.6704 23.4055 32.1413 23.6334 32.5271C23.8678 32.9065 24.1673 33.1942 24.5319 33.3905C24.9031 33.5801 25.3491 33.675 25.87 33.675C26.4821 33.675 26.9867 33.5768 27.3839 33.3806C27.7811 33.1844 28.0839 32.8934 28.2923 32.5075C28.5071 32.1216 28.6341 31.6409 28.6732 31.0654Z" fill="#FBAB34"/>
<path d="M32.8926 30.6043V30.3983C32.8926 29.62 33.0033 28.9039 33.2246 28.2498C33.446 27.5893 33.7683 27.017 34.1916 26.533C34.6148 26.0491 35.1357 25.673 35.7543 25.4048C36.3729 25.1302 37.0826 24.9928 37.8835 24.9928C38.6844 24.9928 39.3974 25.1302 40.0225 25.4048C40.6476 25.673 41.1718 26.0491 41.595 26.533C42.0248 27.017 42.3504 27.5893 42.5717 28.2498C42.7931 28.9039 42.9038 29.62 42.9038 30.3983V30.6043C42.9038 31.3761 42.7931 32.0922 42.5717 32.7528C42.3504 33.4068 42.0248 33.9791 41.595 34.4696C41.1718 34.9536 40.6509 35.3296 40.0323 35.5978C39.4137 35.8659 38.704 36 37.9031 36C37.1022 36 36.3892 35.8659 35.7641 35.5978C35.1455 35.3296 34.6213 34.9536 34.1916 34.4696C33.7683 33.9791 33.446 33.4068 33.2246 32.7528C33.0033 32.0922 32.8926 31.3761 32.8926 30.6043ZM35.7055 30.3983V30.6043C35.7055 31.0491 35.7446 31.4644 35.8227 31.8502C35.9008 32.2361 36.0245 32.5762 36.1938 32.8705C36.3696 33.1583 36.5975 33.3839 36.8775 33.5474C37.1575 33.7109 37.4994 33.7927 37.9031 33.7927C38.2938 33.7927 38.6291 33.7109 38.9091 33.5474C39.1891 33.3839 39.4137 33.1583 39.583 32.8705C39.7523 32.5762 39.876 32.2361 39.9542 31.8502C40.0388 31.4644 40.0811 31.0491 40.0811 30.6043V30.3983C40.0811 29.9666 40.0388 29.5612 39.9542 29.1818C39.876 28.7959 39.7491 28.4559 39.5733 28.1615C39.404 27.8607 39.1793 27.6252 38.8993 27.4552C38.6193 27.2852 38.2807 27.2001 37.8835 27.2001C37.4864 27.2001 37.1478 27.2852 36.8678 27.4552C36.5943 27.6252 36.3696 27.8607 36.1938 28.1615C36.0245 28.4559 35.9008 28.7959 35.8227 29.1818C35.7446 29.5612 35.7055 29.9666 35.7055 30.3983Z" fill="#FBAB34"/>
<path d="M47.6018 25.189V35.8038H44.7791V25.189H47.6018ZM44.6033 22.4225C44.6033 22.0105 44.7466 21.6704 45.0331 21.4022C45.3196 21.1341 45.7037 21 46.1856 21C46.6609 21 47.0418 21.1341 47.3283 21.4022C47.6213 21.6704 47.7678 22.0105 47.7678 22.4225C47.7678 22.8345 47.6213 23.1746 47.3283 23.4428C47.0418 23.7109 46.6609 23.845 46.1856 23.845C45.7037 23.845 45.3196 23.7109 45.0331 23.4428C44.7466 23.1746 44.6033 22.8345 44.6033 22.4225Z" fill="#FBAB34"/>
<path d="M52.6807 27.4552V35.8038H49.8678V25.189H52.5049L52.6807 27.4552ZM52.2705 30.1236H51.5086C51.5086 29.3388 51.6096 28.6324 51.8114 28.0046C52.0133 27.3702 52.2965 26.8306 52.6612 26.3859C53.0258 25.9346 53.4588 25.5912 53.9602 25.3558C54.4681 25.1138 55.0346 24.9928 55.6597 24.9928C56.1545 24.9928 56.6071 25.0647 57.0173 25.2086C57.4275 25.3525 57.7791 25.5814 58.0721 25.8954C58.3716 26.2093 58.5995 26.6246 58.7558 27.1413C58.9186 27.6579 59 28.2891 59 29.0347V35.8038H56.1675V29.0249C56.1675 28.554 56.1024 28.1877 55.9722 27.9261C55.842 27.6645 55.6499 27.4814 55.3959 27.3767C55.1485 27.2655 54.8425 27.2099 54.4778 27.2099C54.1002 27.2099 53.7713 27.2852 53.4914 27.4356C53.2179 27.586 52.99 27.7953 52.8077 28.0634C52.6319 28.325 52.4984 28.6324 52.4072 28.9856C52.3161 29.3388 52.2705 29.7181 52.2705 30.1236Z" fill="#FBAB34"/>
<path fill-rule="evenodd" clip-rule="evenodd" d="M139.782 24.2176C136.313 20.748 130.687 20.748 127.218 24.2176C123.748 27.6873 123.748 33.3127 127.218 36.7824C130.687 40.252 136.313 40.252 139.782 36.7824C143.252 33.3128 143.252 27.6877 139.783 24.218L139.782 24.2176ZM140.925 23.0754C145.025 27.1759 145.025 33.8241 140.925 37.9246C136.824 42.0251 130.176 42.0251 126.075 37.9246C121.975 33.8241 121.975 27.1759 126.075 23.0754C130.176 18.9749 136.824 18.9749 140.925 23.0754ZM132.413 28.2093C132.247 28.5797 132.154 28.9906 132.154 29.4231C132.154 31.0587 133.48 32.3846 135.115 32.3846C135.133 32.3846 135.15 32.3845 135.167 32.3842C135.22 32.3765 135.274 32.374 135.328 32.3771C136.865 32.2681 138.077 30.9873 138.077 29.4231C138.077 27.7873 136.752 26.4616 135.115 26.4616C133.944 26.4616 132.932 27.1413 132.451 28.1279C132.44 28.1558 132.427 28.183 132.413 28.2093ZM130.564 28.9391C129.59 29.4218 128.923 30.4207 128.923 31.5769C128.923 33.2126 130.249 34.5385 131.885 34.5385C132.623 34.5385 133.297 34.2655 133.815 33.8127C131.921 33.2524 130.538 31.4992 130.538 29.4231C130.538 29.2596 130.547 29.0981 130.564 28.9391ZM135.784 33.9515C134.984 35.2652 133.545 36.1539 131.885 36.1539C129.357 36.1539 127.308 34.1047 127.308 31.5769C127.308 29.2831 128.997 27.4017 131.19 27.0676C131.991 25.7366 133.449 24.8462 135.115 24.8462C137.644 24.8462 139.692 26.8955 139.692 29.4231C139.692 31.7236 137.996 33.6278 135.784 33.9515Z" fill="#FBAB34"/>
<rect x="0.5" y="0.5" width="164" height="58" rx="4.5" stroke="#9747FF" stroke-dasharray="10 5"/>
</svg>
